<svg xmlns="http://www.w3.org/2000/svg" height="1024" preserveAspectRatio="none" style="display: block;" version="1.1" viewBox="0 0 2048 2048" width="1024">
<path d="M 0 0 L 2048 0 L 2048 2048 L 0 2048 L 0 0 z" fill="rgb(247,246,244)" transform="translate(0,0)"></path>
<path d="M 780.331 378.184 C 797.94 376.601 836.09 377.846 855.122 377.911 L 1007.45 378.439 L 1179.9 378.108 C 1208.51 378.042 1238.11 377.604 1266.68 378.421 C 1275.22 378.665 1280.42 380.329 1287.2 386.008 C 1294.67 392.181 1299.29 401.144 1299.97 410.81 C 1301.99 439.436 1280.76 449.136 1256.26 450.044 C 1256.36 460.801 1256.36 471.56 1256.24 482.317 C 1237.93 494.364 1234.32 491.914 1218.12 510.865 L 1217.99 534.95 C 1197.64 537.925 1188.47 546.594 1188.34 567.625 L 1188.5 1165.8 L 1188.67 1383.04 L 1188.77 1452.79 C 1188.8 1466.74 1188.64 1480.72 1189.37 1494.63 C 1189.9 1504.74 1199.2 1512.86 1208.8 1514.48 C 1213.87 1515.33 1219.82 1515.01 1224.98 1514.91 L 1224.81 1541.04 L 1250.96 1541.02 L 1250.88 1597.01 L 1297.03 1597.04 L 1297.14 1670.9 L 1272.5 1670.87 L 752.179 1670.76 L 752.104 1597.5 C 767.275 1597.05 783.9 1597.36 799.182 1597.33 C 799.207 1578.61 799.043 1559.89 798.691 1541.18 L 832.168 1541.21 L 832.189 1511.11 C 838.707 1509.98 846.74 1509.2 852.139 1505.2 C 865.164 1495.55 862.217 1475.71 862.179 1461.06 L 862.04 1408 L 861.948 1220.41 L 862.015 570.459 C 861.787 545.889 858.677 537.889 833.283 533.614 C 832.886 525.836 833.066 516.613 833.024 508.723 C 820.795 498.677 809.605 490.276 795.139 483.584 L 795.103 450.015 C 787.201 450.134 782.088 450.386 774.519 447.263 C 765.601 443.637 758.541 436.54 754.961 427.604 C 745.77 404.611 758.799 386.211 780.331 378.184 z" fill="rgb(193,130,50)" transform="translate(0,0)"></path>
<path d="M 846.07 508.47 C 889.069 507.333 937.573 508.728 981.209 508.757 L 1207.76 508.166 L 1207.72 525.022 C 1191.64 532.932 1177.43 542.394 1177.16 562.588 C 1176.92 579.884 1177.19 597.237 1177.2 614.545 L 1177.29 724.117 L 1177.21 1052.77 L 1177.58 1358.72 C 1177.7 1403.48 1177.26 1448.25 1177.47 1492.98 C 1177.56 1511.88 1195.71 1523.95 1213.22 1525.13 L 1213.19 1541.04 L 843.03 1541.14 L 843.044 1520.57 C 863.229 1512.43 872.634 1504.22 872.934 1480.88 C 873.148 1464.23 872.948 1447.46 872.934 1430.8 L 872.882 1332.95 L 873.005 1041.41 L 872.928 719.235 C 872.898 668.946 874.391 609.344 872.812 559.812 C 872.663 555.165 871.589 550.594 869.653 546.367 C 864.265 534.67 854.72 528.85 843.324 524.367 C 843.214 519.152 842.796 514.695 844.028 509.641 L 846.07 508.47 z" fill="rgb(247,246,244)" transform="translate(0,0)"></path>
<path d="M 1122.74 577.1 C 1135.26 576.64 1147.16 585.046 1147.27 598.213 C 1147.47 621.927 1147.31 645.707 1147.28 669.422 L 1147.5 805.756 L 1147.24 1282.03 C 1147.21 1303.81 1149.44 1441.55 1145.59 1451.26 C 1142.43 1459.21 1136.32 1462.52 1128.94 1465.74 C 1118 1466.56 1110.07 1463.01 1105.25 1452.98 C 1103.5 1449.35 1103.13 1446.74 1103.11 1442.73 C 1102.88 1391.19 1102.96 1339.66 1102.98 1288.12 L 1103.06 1002.27 L 1102.95 745.442 C 1102.9 699.68 1102.79 653.844 1102.86 608.085 C 1102.86 604.991 1103.38 590.359 1104.71 588.268 C 1108.83 581.809 1116.1 579.008 1122.74 577.1 z" fill="rgb(193,130,50)" transform="translate(0,0)"></path>
<path d="M 1122.01 586.973 C 1135.05 587.159 1137.21 594.143 1137.41 606.007 C 1137.68 623.057 1137.49 640.141 1137.52 657.196 L 1137.65 758.551 L 1137.45 1095 L 1137.32 1329.51 L 1137.34 1404.3 C 1137.34 1417.4 1137.51 1430.87 1136.99 1443.95 C 1136.8 1448.82 1134.65 1450.55 1131.3 1454.28 C 1115.7 1458.12 1112.74 1449.82 1112.64 1436.19 C 1112.14 1361.26 1112.3 1286.31 1112.35 1211.37 L 1112.4 820.734 C 1112.42 759.573 1111.12 659.582 1113.35 594.479 C 1113.45 591.469 1119.16 588.437 1122.01 586.973 z" fill="rgb(247,246,244)" transform="translate(0,0)"></path>
<path d="M 918.221 575.178 C 936.133 572.925 946.188 583.13 946.047 600.955 C 945.683 646.97 945.937 692.991 945.843 739.011 L 945.148 1029.37 L 945.327 1267.34 C 945.391 1292.54 948.414 1438.13 943.9 1449.79 C 941.131 1456.94 935.908 1460.27 929.232 1463.41 C 925.285 1463.69 923.268 1463.9 919.38 1463.02 C 912.864 1461.54 907.945 1457.7 904.588 1451.95 C 902.515 1448.4 901.566 1443.47 901.601 1439.37 C 902.112 1378.53 902.036 1317.59 902.006 1256.75 L 901.955 831.394 L 901.167 658.287 C 901.185 642.525 901.208 626.666 901.434 610.911 C 901.697 592.59 900.108 584.418 918.221 575.178 z" fill="rgb(193,130,50)" transform="translate(0,0)"></path>
<path d="M 922.247 584.918 C 936.273 585.28 936.773 594.557 936.766 605.918 C 936.722 676.419 936.903 746.918 936.908 817.419 L 936.892 1228.35 L 936.938 1371.34 C 936.953 1393.13 938.14 1424.22 935.346 1445.88 C 934.877 1449.52 930.178 1451.9 927.077 1453.47 C 925.327 1453.4 923.104 1453.31 921.358 1453.09 C 918.063 1452.64 915.131 1450.77 913.338 1447.97 C 908.825 1441.04 910.817 1281.24 910.814 1256.63 L 910.886 757.489 L 910.925 651.547 C 910.935 634.162 910.04 610.551 912.49 593.436 C 913.042 589.587 918.99 586.55 922.247 584.918 z" fill="rgb(247,246,244)" transform="translate(0,0)"></path>
<path d="M 989.765 575.124 C 994.346 574.979 998.386 575.039 1002.4 577.372 C 1013.34 583.864 1013.85 592.487 1013.88 603.865 C 1013.92 621.107 1013.88 638.224 1013.83 655.389 L 1013.36 804.585 L 1013.32 1240.19 C 1013.37 1304.41 1013.89 1368.64 1013.89 1432.86 C 1013.89 1448.69 1012.35 1459.01 995.646 1464.04 C 978.805 1464.56 970.299 1455.55 970.303 1439.05 C 970.316 1391.04 970.315 1343.02 970.292 1295 L 970.218 995.783 L 970.129 741.059 C 970.115 696.771 969.965 652.467 970.259 608.183 C 970.376 590.601 970.535 579.912 989.765 575.124 z" fill="rgb(193,130,50)" transform="translate(0,0)"></path>
<path d="M 987.936 585.013 C 1003.51 585.403 1005 592.602 1005.14 606.671 C 1005.84 672.159 1005.7 737.651 1005.61 803.141 L 1005.34 1137.24 L 1005.7 1339.4 L 1005.74 1403.89 C 1005.74 1416.3 1005.93 1429.05 1005.24 1441.44 C 1004.89 1447.76 1001.93 1450.24 997.278 1454.08 C 985.024 1456.2 979.211 1449.99 979.008 1437.92 C 978.659 1417.23 978.858 1396.51 978.902 1375.81 L 978.856 1261.01 L 978.878 735.038 C 978.921 693.876 978.259 635.908 979.604 593.686 C 979.712 590.303 985.074 586.82 987.936 585.013 z" fill="rgb(247,246,244)" transform="translate(0,0)"></path>
<path d="M 1052.01 575.12 C 1055.27 574.736 1059.33 574.44 1062.54 575.018 C 1070.99 576.54 1080.22 586.26 1080.29 595.009 C 1080.43 614.19 1080.1 633.339 1080.07 652.502 L 1079.97 774.417 L 1079.91 1276.57 L 1080.24 1396.01 C 1080.26 1408.47 1080.2 1421.17 1080.26 1433.6 C 1080.33 1449.32 1080.23 1455.66 1065.31 1463.59 C 1055.86 1465.53 1045.28 1464.32 1040.25 1455 C 1037.5 1449.91 1036.98 1439.23 1037 1433.37 C 1037.2 1370.46 1037.21 1307.56 1037.2 1244.66 L 1037.15 813.015 L 1036.86 662.788 C 1036.81 646.428 1036.5 629.962 1036.69 613.613 C 1036.92 595.056 1033.37 584.435 1052.01 575.12 z" fill="rgb(193,130,50)" transform="translate(0,0)"></path>
<path d="M 1053.73 584.949 C 1057.06 584.797 1060.3 584.7 1063.44 586.026 C 1066.72 587.412 1068.71 589.427 1069.98 592.764 C 1073.08 600.912 1071.18 727.499 1071.21 746.293 L 1071.24 1304.02 C 1071.24 1323.43 1073.56 1440.92 1069.69 1447.9 C 1067.42 1452.01 1063.61 1453.31 1059.52 1455.05 C 1052.97 1453.8 1051.43 1453.28 1047.16 1448.23 C 1044.59 1435.36 1045.5 1401.89 1045.53 1386.62 L 1045.62 1280.73 L 1045.5 852.4 L 1045.14 667.802 L 1045.08 618.038 C 1045.06 603.707 1041.38 593.398 1053.73 584.949 z" fill="rgb(247,246,244)" transform="translate(0,0)"></path>
<path d="M 763.174 1607.28 C 830.426 1606.28 901.867 1607.85 969.457 1607.97 L 1286.19 1607.91 C 1286.13 1625.36 1286.18 1642.81 1286.33 1660.26 L 763.008 1660.25 L 763.174 1607.28 z" fill="rgb(247,246,244)" transform="translate(0,0)"></path>
<path d="M 789.562 388.343 C 809.523 387.042 842.628 388.097 863.727 388.074 L 1011.07 387.933 L 1176.14 387.907 C 1205.23 387.927 1234.81 387.692 1263.89 388.376 C 1268.75 388.521 1273.8 389.206 1277.64 392.587 C 1297.48 410.017 1290.75 435.859 1264.25 438.998 L 924.509 438.518 L 833.774 438.214 C 819.478 438.212 804.273 437.975 789.367 438.383 C 765.696 439.03 756.788 416.269 768.719 397.797 C 773.04 391.106 781.682 389.219 789.562 388.343 z" fill="rgb(247,246,244)" transform="translate(0,0)"></path>
<path d="M 804.975 449.849 L 1245.04 450.169 L 1245.03 477.114 C 1241.06 479.763 1235.23 482.745 1230.93 485.11 C 1223.7 488.982 1220.12 491.865 1213.81 496.989 L 837.259 497.952 C 825.67 489.826 817.184 483.905 805.019 476.513 L 804.975 449.849 z" fill="rgb(247,246,244)" transform="translate(0,0)"></path>
<path d="M 809.484 1552.08 L 1087.01 1552.03 C 1134.91 1551.98 1192.78 1550.51 1239.98 1552.51 L 1240.03 1596.94 L 809.734 1597.09 C 809.224 1582.64 809.512 1566.65 809.484 1552.08 z" fill="rgb(247,246,244)" transform="translate(0,0)"></path>
<metadata><recraft-signature>{"signed_by": "recraft", "signature_b64": "CkhfTrtAx7dQlcoGIEWtvGggRzc3ePTKr0PHGSxddGVa2u366ZCnJR0vqK/nrcWHOx890agsFfIAnRFjHmElCA==", "signing_algo": "Ed25519", "generation_timestamp": 1782123547, "identifier": "bb41c1d3-8aba-495a-a8f1-359c08ce6d9f"}</recraft-signature></metadata></svg>