<svg xmlns="http://www.w3.org/2000/svg" height="2048" preserveAspectRatio="none" style="display: block;" version="1.1" viewBox="0 0 2048 2048" width="2048">
<path d="M 0 0 L 2048 0 L 2048 2048 L 0 2048 L 0 0 z" fill="rgb(249,249,248)" transform="translate(0,0)"></path>
<path d="M 946.361 874.129 C 1020.24 865.697 1087.01 918.667 1095.59 992.531 C 1104.18 1066.4 1051.35 1133.27 977.504 1142.01 C 903.439 1150.78 836.323 1097.76 827.71 1023.67 C 819.097 949.591 872.259 882.586 946.361 874.129 z" fill="rgb(158,111,27)" transform="translate(0,0)"></path>
<path d="M 947.622 896.731 C 1009.26 888.932 1065.53 932.639 1073.21 994.291 C 1080.9 1055.94 1037.09 1112.13 975.429 1119.71 C 913.92 1127.27 857.906 1083.59 850.237 1022.1 C 842.568 960.602 886.14 904.51 947.622 896.731 z" fill="rgb(249,249,248)" transform="translate(0,0)"></path>
<path d="M 1311.78 879.097 C 1370.02 878.884 1433.47 869.854 1478.26 915.403 C 1526.95 964.909 1528.23 1050.57 1478.3 1099.86 C 1427.17 1145.78 1376.66 1137.19 1311.77 1137.12 L 1311.78 879.097 z" fill="rgb(158,111,27)" transform="translate(0,0)"></path>
<path d="M 1334.7 901.123 C 1377.03 900.676 1426.92 896.509 1459.3 928.411 C 1502.93 971.406 1500.84 1043.33 1459.92 1086.52 C 1424.37 1120.51 1380.01 1115.18 1334.39 1115.26 L 1334.53 990.319 C 1334.44 960.942 1333.87 930.394 1334.7 901.123 z" fill="rgb(249,249,248)" transform="translate(0,0)"></path>
<path d="M 1039.94 542.31 C 1055.88 542.146 1071.81 542.066 1087.75 542.07 C 1129.88 541.989 1168.39 544.255 1200.53 574.93 C 1254.54 626.478 1253.87 708.93 1203.79 762.212 C 1155.3 806.416 1101.9 797.914 1039.7 797.716 L 1039.94 542.31 z" fill="rgb(158,111,27)" transform="translate(0,0)"></path>
<path d="M 1061.97 563.94 C 1105.4 563.842 1151.66 558.949 1185.73 591.082 C 1229.89 632.738 1229.08 702.803 1189.27 746.61 C 1153.69 781.715 1108.04 776.452 1062.14 776.228 L 1061.97 563.94 z" fill="rgb(249,249,248)" transform="translate(0,0)"></path>
<path d="M 895.286 532.193 C 897.222 533.139 898.091 533.862 899.034 536.015 C 910.619 562.451 921.867 589.862 933.056 616.445 L 1009.03 797.345 L 985.421 797.399 C 973.665 769.736 961.656 740.577 950.499 712.679 C 932.647 712.716 914.795 712.627 896.945 712.412 L 840.916 712.24 L 806.222 797.503 L 783.235 797.716 C 820.04 708.979 857.391 620.47 895.286 532.193 z" fill="rgb(158,111,27)" transform="translate(0,0)"></path>
<path d="M 895.494 580.762 C 898.741 584.133 937.593 681.771 942.337 693.766 L 897.5 693.709 L 849.054 693.862 L 895.494 580.762 z" fill="rgb(249,249,248)" transform="translate(0,0)"></path>
<path d="M 649.608 874.335 C 664.121 872.915 678.766 873.787 693.008 876.921 C 725.919 884.398 754.996 902.033 773.056 930.967 L 755.423 943.562 C 740.706 921.87 718.776 906.096 693.529 899.044 C 664.165 891.069 635.256 895.674 609.053 910.874 C 583.068 926.164 564.211 951.138 556.619 980.315 C 540.87 1041.51 575.813 1102.25 637.469 1117.52 C 664.545 1124.28 693.201 1119.9 717.017 1105.35 C 746.633 1087.04 760.851 1060.62 768.769 1027.78 L 733.25 1027.77 C 704.587 1027.64 675.924 1027.67 647.261 1027.85 L 647.257 1008.69 C 695.494 1008.14 743.958 1008.58 792.228 1008.55 C 791.724 1039.24 784.287 1065.29 766.048 1090.27 C 723.255 1148.89 639.771 1158.89 582.259 1115.87 C 554.119 1094.95 535.654 1063.53 531.076 1028.76 C 526.289 993.437 535.261 954.864 557.067 926.433 C 579.731 897.42 613.047 878.664 649.608 874.335 z" fill="rgb(158,111,27)" transform="translate(0,0)"></path>
<path d="M 1287.08 542.283 C 1333.29 541.127 1383.38 542.119 1429.94 541.982 L 1429.85 564.447 L 1309.89 564.164 L 1309.62 652.386 L 1425.53 652.347 L 1425.56 673.797 C 1391.24 674.048 1343.91 672.273 1311.06 674.335 C 1309.33 676.932 1309.95 678.348 1309.84 682.076 L 1309.79 776.369 C 1348.28 777.802 1391.69 776.776 1430.51 776.611 L 1430.34 798.004 L 1287.03 797.844 L 1287.08 542.283 z" fill="rgb(158,111,27)" transform="translate(0,0)"></path>
<path d="M 735.727 540.142 L 758.525 539.837 C 757.004 606.877 759.474 674.388 757.693 741.407 C 756.669 779.985 712.868 806.18 677.009 800.906 C 654.423 797.584 641.46 789.245 627.191 771.531 C 621.085 762.31 619.113 756.677 615.595 746.177 L 637.554 742.188 C 640.504 751.947 643.587 759.549 650.615 767.213 C 668.507 786.725 703.329 785.393 721.675 767.348 C 727.633 761.576 731.752 754.17 733.513 746.063 C 736.727 731.632 735.716 689.444 735.722 672.373 L 735.727 540.142 z" fill="rgb(158,111,27)" transform="translate(0,0)"></path>
<path d="M 1145.51 879.341 C 1153.37 879.206 1160.37 879.126 1168.22 879.469 L 1168.67 1116.68 L 1268.17 1116.32 L 1268.24 1136.06 L 1267.87 1136.93 C 1264.95 1138.77 1160.18 1137.88 1145.64 1137.87 C 1144.42 1052.45 1146.17 965.141 1145.51 879.341 z" fill="rgb(158,111,27)" transform="translate(0,0)"></path>
<path d="M 822.038 1235.91 C 823.618 1235.87 830.36 1235.52 831.282 1236.75 C 840.837 1249.56 849.643 1263.03 858.658 1276.23 L 922.59 1369.48 C 922.877 1326.39 922.945 1283.3 922.792 1240.22 L 935.535 1240.33 C 935.925 1280.79 935.992 1321.26 935.737 1361.72 C 935.729 1367.14 936.186 1400.52 935.341 1404.27 L 933.589 1405.32 L 930.59 1404.53 C 919.269 1388.75 907.233 1369.86 896.298 1353.56 C 875.832 1322.93 855.181 1292.43 834.346 1262.05 C 834.82 1307.68 834.857 1353.3 834.456 1398.92 L 821.991 1398.96 L 822.038 1235.91 z" fill="rgb(158,111,27)" transform="translate(0,0)"></path>
<path d="M 1151.55 1239.23 C 1159.71 1238.34 1167.95 1238.55 1176.06 1239.83 C 1200.94 1244 1216.09 1256.21 1230.24 1276.21 C 1226.78 1278.64 1223.25 1281.42 1219.86 1283.99 C 1216.96 1278.98 1213.65 1274.31 1209.59 1270.19 C 1197.14 1257.51 1180.07 1250.43 1162.31 1250.56 C 1123.26 1250.62 1089.82 1280.07 1090.39 1320.02 C 1090.82 1338.87 1098.83 1356.75 1112.6 1369.63 C 1129.96 1386.14 1147.34 1389.57 1170.33 1388.9 C 1193.97 1385.03 1204.95 1375.5 1219.73 1357.7 L 1229.87 1364.82 C 1214.21 1383.34 1200.76 1395.26 1175.95 1399.92 C 1154.22 1403.97 1131.77 1399.2 1113.58 1386.65 C 1095.74 1374.52 1083.47 1355.79 1079.46 1334.6 C 1075.59 1313.34 1080.5 1291.42 1093.08 1273.85 C 1107.51 1253.28 1127.42 1243.56 1151.55 1239.23 z" fill="rgb(158,111,27)" transform="translate(0,0)"></path>
<path d="M 1064.7 1240.53 L 1079.5 1240.16 L 1044.16 1293.34 C 1037.46 1303.09 1030.66 1312.77 1023.75 1322.37 L 1023.95 1399.06 L 1010.82 1399.01 L 1010.68 1322.16 C 1003.54 1312.07 955.531 1246.04 954.251 1240.47 L 968.544 1240.18 C 985.06 1263.67 1001.43 1288.2 1018.15 1311.31 C 1033.3 1287.48 1048.82 1263.88 1064.7 1240.53 z" fill="rgb(158,111,27)" transform="translate(0,0)"></path>
<path d="M 973.72 1498.51 C 991.487 1498.34 1158.02 1496.89 1163.86 1499.25 C 1164.43 1501.76 1164.69 1501.77 1163.82 1504.12 C 1158.96 1507.66 1140.26 1505.99 1133.34 1505.98 L 1078.25 1506 C 1034.23 1506.22 936.949 1506.24 888.007 1505.78 C 887.514 1505.34 887.022 1504.9 886.529 1504.46 L 886.336 1500.42 C 889.671 1497.42 911.747 1498.63 917.737 1498.62 L 973.72 1498.51 z" fill="rgb(158,111,27)" transform="translate(0,0)"></path>
<metadata><recraft-signature>{"signed_by": "recraft", "signature_b64": "FnOSfA2rJ3+5nXDioS9esLKGJvFsAxdmnmbSSw9Zn6hnut443kYWtBeYizxrZyYYFmPQ9LfC9iYQ7ZiebJ+5Cg==", "signing_algo": "Ed25519", "generation_timestamp": 1782122938, "identifier": "4b94a19b-2d9c-40b7-b7de-44a91f3e51fa"}</recraft-signature></metadata></svg>