<svg xmlns="http://www.w3.org/2000/svg" viewBox="0 0 420 120" fill="none" role="img" aria-label="EON Fine Jewelry primary lockup">
  <!-- Primary lockup: EON wordmark + hairline + FINE JEWELRY -->
  <g fill="#1C1C1C">
    <!-- E -->
    <path d="M48 18h58v7H56.5V40H100v7H56.5V61H106v7H48V18z"/>
    <!-- O -->
    <path d="M186 18c24.5 0 43.5 15.6 43.5 32.5S210.5 83 186 83s-43.5-15.6-43.5-32.5S161.5 18 186 18zm0 8c-17.8 0-31 11.2-31 24.5S168.2 75 186 75s31-11.2 31-24.5S203.8 26 186 26z"/>
    <!-- N -->
    <path d="M258 18h8l48.5 36.5V18h8.5v50h-8L266.5 31.5V68H258V18z"/>
  </g>
  <line x1="48" y1="88" x2="372" y2="88" stroke="#1C1C1C" stroke-width="0.75" opacity="0.55"/>
  <text x="210" y="108" text-anchor="middle" fill="#1C1C1C"
        font-family="system-ui, 'Helvetica Neue', Arial, sans-serif"
        font-size="11" font-weight="500" letter-spacing="4.5">FINE JEWELRY</text>
</svg>
