<svg xmlns="http://www.w3.org/2000/svg" style="display: block;" version="1.1" viewBox="0 0 2048 2048">
<path d="M 1374.52 816.573 C 1435.11 811.738 1488.05 857.158 1492.48 917.776 C 1496.91 978.393 1451.13 1031.03 1390.49 1035.05 C 1330.41 1039.04 1278.38 993.789 1273.99 933.742 C 1269.6 873.694 1314.5 821.362 1374.52 816.573 z" fill="rgb(183,131,27)" transform="translate(0,0)"></path>
<path d="M 1373.65 835.92 C 1423.26 830.771 1467.65 866.803 1472.82 916.411 C 1477.99 966.019 1441.97 1010.43 1392.37 1015.61 C 1342.74 1020.8 1298.3 984.762 1293.13 935.129 C 1287.96 885.495 1324.01 841.072 1373.65 835.92 z" fill="rgb(254,253,254)" transform="translate(0,0)"></path>
<path d="M 1680 818.248 C 1724.98 818.101 1780.29 811.46 1815.99 844.155 C 1862.02 886.309 1862.09 958.747 1820.42 1004.14 C 1782.14 1040.02 1729.84 1032.61 1680.02 1032.42 L 1680 818.248 z" fill="rgb(183,131,27)" transform="translate(0,0)"></path>
<path d="M 1698.54 837.172 C 1733.28 836.958 1776.13 834.347 1803.5 859.187 C 1841.23 893.419 1839.75 952.989 1807.44 989.482 C 1775.51 1019.13 1739.96 1013.96 1698.65 1013.6 L 1698.54 837.172 z" fill="rgb(254,253,254)" transform="translate(0,0)"></path>
<path d="M 567.623 818.369 C 614.899 817.923 668.938 811.207 705.885 846.641 C 749.289 888.269 748.877 959.064 708.316 1002.52 C 670.427 1040.77 617.059 1032.35 567.73 1032.57 L 567.623 818.369 z" fill="rgb(183,131,27)" transform="translate(0,0)"></path>
<path d="M 586.12 837.091 C 621.76 836.895 665.686 834.332 692.605 861.239 C 727.969 896.587 726.89 955.073 693.266 990.006 C 660.99 1019.07 627.566 1013.85 586.144 1013.76 L 586.12 837.091 z" fill="rgb(254,253,254)" transform="translate(0,0)"></path>
<path d="M 423.56 818.375 L 443.322 818.422 C 452.63 838.865 465.744 877.517 473.58 899.203 C 489.565 943.876 506.054 988.367 523.044 1032.67 C 515.939 1032.58 508.613 1032.7 501.487 1032.73 L 481.95 979.514 C 467.771 979.281 452.976 979.558 438.75 979.626 L 381.893 979.384 C 375.441 997.148 368.817 1014.85 362.023 1032.48 L 340.669 1032.32 L 392.555 896.978 C 402.266 871.84 412.806 842.788 423.56 818.375 z" fill="rgb(183,131,27)" transform="translate(0,0)"></path>
<path d="M 432.55 846.602 C 435.568 849.248 470.82 949.057 474.619 961.166 L 433.6 961.292 C 418.687 961.342 403.774 961.243 388.863 960.997 C 404.249 925.421 417.543 883.134 432.55 846.602 z" fill="rgb(254,253,254)" transform="translate(0,0)"></path>
<path d="M 1118.29 815.331 C 1162.31 811.287 1203.39 828.73 1223.34 869.534 C 1226.05 875.088 1228.14 881.256 1230.23 887.078 L 1211.07 887.036 C 1210.29 885.351 1209.47 883.682 1208.62 882.029 C 1184.2 833.938 1136.65 822.236 1087.71 844.466 C 1067.24 853.769 1051.57 876.475 1045.2 897.782 C 1037.68 922.958 1040.61 950.102 1053.34 973.091 C 1064.62 993.737 1083.81 1008.91 1106.5 1015.13 C 1148.21 1026.72 1189.42 1007.19 1207.3 967.812 C 1210.26 961.284 1211.85 954.719 1213.67 947.805 C 1214.03 945.402 1214.02 945.546 1213.51 943.166 C 1204.64 940.869 1146.12 942.714 1133.15 942.753 L 1132.92 923.803 L 1235.38 923.706 C 1232.73 977.404 1202.73 1025.19 1146.79 1034.51 C 1118.42 1039.39 1089.29 1032.62 1065.98 1015.72 C 1041.41 997.871 1026.61 972.193 1022.22 942.217 C 1017.86 912.08 1025.65 881.444 1043.88 857.053 C 1063.43 830.969 1086.77 819.68 1118.29 815.331 z" fill="rgb(183,131,27)" transform="translate(0,0)"></path>
<path d="M 785.474 818.15 L 898.27 818.251 L 898.313 838.042 L 804.174 837.391 C 803.989 863.296 804.045 889.202 804.345 915.106 L 888.875 915.001 L 888.947 932.984 L 804.263 932.938 L 804.005 951.648 L 804.084 1012.82 C 835.348 1013.04 867.092 1012.62 898.39 1012.48 C 898.3 1019.21 898.511 1025.97 898.657 1032.7 L 785.308 1032.53 L 785.474 818.15 z" fill="rgb(183,131,27)" transform="translate(0,0)"></path>
<path d="M 281.126 818.149 L 301.607 818.067 L 301.467 921.766 C 301.523 969.457 312.33 1038.97 240.122 1032.92 C 221.276 1031.34 209.187 1023.82 199.882 1007.26 C 193.854 993.621 193.35 985.579 193.02 970.641 L 211.017 970.559 C 212.146 994.922 218.585 1015.24 247.303 1015.43 C 265.183 1015.64 278.027 1004.56 279.98 986.694 C 282.111 967.201 281.191 946.621 281.137 926.97 L 281.126 818.149 z" fill="rgb(183,131,27)" transform="translate(0,0)"></path>
<path d="M 1540.88 818.291 L 1559.63 818.193 C 1559.91 883.294 1559.86 948.396 1559.48 1013.5 L 1639.97 1013.01 L 1640 1032.69 C 1606.91 1032.34 1573.82 1032.34 1540.74 1032.71 L 1540.88 818.291 z" fill="rgb(183,131,27)" transform="translate(0,0)"></path>
<path d="M 945.479 1215.57 C 944.968 1190.65 946.085 1165.37 945.971 1140.44 C 946.38 1138.32 955.952 1138.84 955.813 1140.51 C 954.839 1152.18 957.657 1229.69 954.727 1234.08 C 952.274 1234.02 948.828 1234.5 946.5 1233.75 C 944.26 1233.03 900.314 1161.91 896.044 1154.29 C 896.038 1180.5 896.727 1207.3 895.561 1233.26 C 895.505 1234.53 886.471 1234.46 886.483 1233.26 C 886.785 1202.88 884.523 1169.73 886.133 1139.42 C 889.951 1139.44 893.769 1139.49 897.586 1139.59 C 913.779 1165.25 929.58 1189.58 945.479 1215.57 z" fill="rgb(36,38,37)" transform="translate(0,0)"></path>
<path d="M 1119.81 1138.2 C 1141.63 1137 1157.06 1142.52 1165.42 1164.49 C 1167.29 1169.41 1157.1 1166.87 1157.43 1167.2 C 1153.15 1163.12 1151.39 1154.97 1145.22 1151.71 C 1106.71 1131.34 1086.54 1166.39 1092.99 1200.5 C 1094.67 1209.79 1100.04 1218 1107.89 1223.24 C 1117.34 1229.47 1126.63 1228.49 1136.91 1226.47 C 1148.66 1221.5 1151.43 1217.4 1156.68 1205.66 C 1157.18 1204.54 1166.26 1204.41 1165.89 1206.48 C 1160.45 1236.18 1122.23 1242.93 1099.93 1228.21 C 1078.19 1212.88 1077.06 1176.06 1090.53 1155.53 C 1097.56 1144.82 1107.77 1140.54 1119.81 1138.2 z" fill="rgb(36,38,37)" transform="translate(0,0)"></path>
<path d="M 986.644 1139.41 C 990.609 1139.32 993.332 1139.27 997.328 1139.55 C 1005.63 1154.23 1013.82 1169.4 1022.36 1183.92 C 1029.51 1169.3 1038.63 1154.47 1046.56 1140.24 C 1046.84 1139.73 1056.15 1138.82 1057.06 1140.54 C 1056.84 1141.86 1040.53 1171.01 1038.68 1174.59 C 1035.44 1181.09 1030.88 1189.05 1027.31 1195.38 C 1027.45 1207.76 1027.79 1220.74 1027.06 1233 C 1026.43 1234.65 1018.32 1234.06 1018.11 1233.4 C 1016.03 1227.04 1018.56 1199.92 1016.91 1195.01 C 1011.81 1179.85 990.042 1152.98 986.644 1139.41 z" fill="rgb(36,38,37)" transform="translate(0,0)"></path>
<metadata><recraft-signature>{"signed_by": "recraft", "signature_b64": "uPgZFZzAsIqSP4hgHU+7f29da/KBJZFZ4fka9JEbYWmRYwzIpLjrQ11ee/RwMRs6aeT+uNCL0Pben9OlJgjqCg==", "signing_algo": "Ed25519", "generation_timestamp": 1782121143, "identifier": "f5a663fb-4a4a-4add-a670-9e6ae5f18041"}</recraft-signature></metadata></svg>