<svg xmlns="http://www.w3.org/2000/svg" style="display: block;" version="1.1" viewBox="0 0 2048 2048">
<defs><mask id="lw-cut" maskUnits="userSpaceOnUse" x="0" y="0" width="2048" height="2048"><rect x="0" y="0" width="2048" height="2048" fill="#fff"></rect>
<path d="M 1354.14 934.101 C 1404.04 931.42 1446.71 969.612 1449.56 1019.51 C 1452.4 1069.4 1414.35 1112.2 1364.46 1115.2 C 1314.35 1118.23 1271.31 1079.96 1268.45 1029.83 C 1265.6 979.706 1304 936.795 1354.14 934.101 z" fill="#000" transform="translate(0,0)"></path>
<path d="M 1658.77 939.407 C 1691.5 939.076 1730.18 936.093 1755.13 960.88 C 1789.56 995.084 1790.65 1051.05 1757.58 1086.34 C 1729.83 1112.38 1694.3 1109.16 1658.91 1109.28 L 1658.77 939.407 z" fill="#000" transform="translate(0,0)"></path>
<path d="M 580.877 939.133 C 612.791 938.842 650.767 936.041 675.312 959.839 C 710.949 994.392 712.148 1049.69 678.844 1085.82 C 649.262 1112.63 618.428 1109.11 580.969 1109.14 L 580.877 939.133 z" fill="#000" transform="translate(0,0)"></path>
<path d="M 428.308 957.488 C 431.65 960.376 459.768 1028.47 463.85 1037.99 C 451.4 1038.11 438.95 1038.17 426.5 1038.15 L 390.667 1038.11 C 403.647 1011.39 415.515 984.096 428.308 957.488 z" fill="#000" transform="translate(0,0)"></path>
</mask></defs>
<g mask="url(#lw-cut)">
<path d="M 1352.72 914.771 C 1413.41 911.367 1465.4 957.744 1468.93 1018.43 C 1472.45 1079.11 1426.17 1131.19 1365.5 1134.84 C 1304.65 1138.49 1252.39 1092.06 1248.86 1031.2 C 1245.33 970.35 1291.86 918.184 1352.72 914.771 z" fill="rgb(170,112,29)" transform="translate(0,0)"></path>
<path d="M 1639.87 919.838 C 1685.06 919.831 1735.86 913.243 1770.34 948.484 C 1811.45 990.506 1812.31 1058.46 1770.78 1100.69 C 1734.44 1134.99 1686.65 1128.98 1639.73 1128.93 C 1639.31 1059.23 1639.36 989.534 1639.87 919.838 z" fill="rgb(170,112,29)" transform="translate(0,0)"></path>
<path d="M 561.401 919.939 C 603.637 919.814 656.133 913.776 688.807 945.58 C 732.188 987.807 734.726 1055.92 692.638 1100.02 C 655.769 1134.74 608.535 1129.05 561.087 1128.94 C 561.217 1059.59 560.41 989.185 561.401 919.939 z" fill="rgb(170,112,29)" transform="translate(0,0)"></path>
<path d="M 429.591 914.558 C 432.734 917.046 514.597 1105.66 524.817 1128.6 L 502.827 1128.82 C 492.394 1104.84 482.14 1080.79 472.066 1056.66 L 421.5 1056.7 L 381.775 1056.82 L 348.308 1128.63 L 325.395 1128.77 C 338.056 1101.44 352.463 1073.13 365.718 1045.97 L 429.591 914.558 z" fill="rgb(170,112,29)" transform="translate(0,0)"></path>
<path d="M 1103.62 914.401 C 1141.6 910.663 1178.44 930.289 1201.49 959.691 L 1187.09 974.279 C 1174.33 956.212 1155.76 943.072 1134.47 937.057 C 1111.4 930.766 1085.89 933.575 1065.11 945.606 C 1044.12 957.695 1028.89 977.726 1022.86 1001.18 C 1016.5 1025.55 1019.97 1050.48 1032.33 1072.33 C 1061.35 1123.68 1142.46 1134.74 1177.02 1083.16 C 1185.09 1071.13 1187.84 1061.54 1191.26 1047.57 L 1178.5 1047.63 L 1118.85 1047.8 L 1118.84 1028.25 L 1213.14 1028.12 C 1210.83 1172.05 1011.98 1167.41 1000.27 1035 C 997.369 1005.56 1006.52 976.192 1025.63 953.605 C 1046.27 929.125 1072.11 917.251 1103.62 914.401 z" fill="rgb(170,112,29)" transform="translate(0,0)"></path>
<path d="M 768.862 919.935 L 880.123 919.828 L 880.133 939.037 L 788.53 939.172 C 788.355 959.006 788.333 978.842 788.465 998.677 L 879.971 998.69 L 880.038 1017.83 C 849.69 1018.2 818.844 1017.92 788.459 1017.91 L 788.481 1035.32 C 788.989 1059.42 788.632 1084.73 788.597 1108.92 L 880.096 1108.92 L 880.138 1128.82 L 768.87 1128.84 L 768.862 919.935 z" fill="rgb(170,112,29)" transform="translate(0,0)"></path>
<path d="M 1514.84 919.928 L 1534.28 919.835 L 1534.04 1108.9 L 1602.66 1108.82 L 1602.6 1128.71 C 1573.8 1129.19 1544.06 1128.82 1515.2 1128.8 L 1514.84 919.928 z" fill="rgb(170,112,29)" transform="translate(0,0)"></path>
<path d="M 281.872 919.975 L 301.044 919.917 L 300.882 1030.3 C 300.9 1053.43 302.299 1081.74 299.58 1104.55 C 296.074 1133.98 268.853 1139.59 243.244 1131.21 C 237.39 1128.69 233.814 1126.28 228.443 1122.87 L 239.79 1105.64 C 257.524 1120.24 278.945 1122.02 281.544 1093.68 C 283.158 1076.09 282.026 1055.65 282.005 1037.74 L 281.872 919.975 z" fill="rgb(170,112,29)" transform="translate(0,0)"></path>
</g>
</svg>