<svg xmlns="http://www.w3.org/2000/svg" style="display: block;" version="1.1" viewBox="0 0 2048 2048">
<path d="M 837.676 497.432 C 915.798 493.351 996.758 520.556 1058.74 567.755 C 1132.69 624.992 1181.14 709.04 1193.61 801.72 C 1203.57 881.034 1185.33 961.325 1142.06 1028.54 C 1129.32 1048.51 1114.18 1066.52 1099.71 1085.3 C 1109.74 1096.76 1123.52 1112.11 1134.54 1122.26 C 1152.08 1108.08 1168.71 1082.44 1188.72 1073.36 C 1194.34 1070.8 1220.18 1099.68 1225.16 1104.68 L 1290.12 1170.19 L 1441.64 1322.08 C 1455.79 1336.28 1551.66 1429.41 1552.79 1438.28 C 1550 1450.1 1534.47 1463.3 1525.82 1471.94 L 1489.15 1508.59 C 1436.59 1561.48 1452.2 1564.44 1398.95 1511.23 L 1336.71 1448.93 C 1314.32 1424.93 1285.23 1397.67 1261.5 1373.99 L 1138.72 1250.39 C 1128.66 1240.33 1084.81 1198.93 1078.62 1188.09 C 1073.86 1179.76 1107.7 1150.9 1116.93 1140.74 C 1104.39 1127.06 1094.08 1115.97 1080.29 1103.62 C 1063.77 1116.31 1047.45 1129.15 1029.88 1140.37 C 980.947 1171.25 924.97 1189.2 867.202 1192.52 C 776.615 1198 680.575 1163.22 613.072 1102.93 C 545.156 1041.81 504.208 956.279 499.182 865.045 C 494.291 774.379 525.415 685.452 585.779 617.625 C 653.881 541.889 735.981 502.941 837.676 497.432 z" fill="rgb(183,135,23)" transform="translate(0,0)"></path>
<path d="M 828.085 522.934 C 1006.04 512.171 1159 647.792 1169.61 825.761 C 1180.22 1003.73 1044.47 1156.57 866.496 1167.03 C 688.73 1177.48 536.113 1041.93 525.512 864.172 C 514.912 686.415 650.337 533.684 828.085 522.934 z" fill="rgb(241,240,237)" transform="translate(0,0)"></path>
<path d="M 1188.06 1105.62 C 1194.61 1107.9 1269.04 1185.25 1279.81 1195.97 L 1522.27 1439.35 C 1497.14 1464.34 1468.88 1495.06 1443.59 1518.23 C 1438.33 1516.36 1207.78 1284 1181.22 1257.23 L 1137.47 1212.88 C 1128.85 1204.16 1117.71 1192.4 1108.48 1184.87 C 1132.51 1159.4 1163 1130.48 1188.06 1105.62 z" fill="rgb(241,240,237)" transform="translate(0,0)"></path>
<metadata><recraft-signature>{"signed_by": "recraft", "signature_b64": "rlNsdgQZDdkEWy8MJ2kIzk35RkD7VSnY7UdV+A7QQPLCifdQvTySJkLmijkTs/aTnAKwuy/NDVO82r/WKZmXCA==", "signing_algo": "Ed25519", "generation_timestamp": 1782123727, "identifier": "c21a94c2-226d-4d00-841c-3bede6195db9"}</recraft-signature></metadata></svg>