<svg xmlns="http://www.w3.org/2000/svg" style="display: block;" version="1.1" viewBox="0 0 2048 2048">
<path d="M 1020.69 395.927 C 1029.12 395.433 1034 397.177 1034.39 406.652 C 1035.17 425.312 1034.7 444.371 1034.62 463.039 C 1034.53 496.073 1034.66 529.106 1035.01 562.138 C 1040.49 561.854 1047.33 561.999 1048.48 568.869 C 1050.65 581.792 1051.57 595.065 1052.93 608.128 L 1061.52 692.153 L 1077.03 692.49 L 1077.03 721.162 C 1108.11 722.286 1102.45 730.242 1102.89 758.216 C 1102.98 763.925 1102.97 769.983 1103.02 775.722 C 1110.16 775.747 1120.51 775.476 1121.01 784.966 C 1121.63 796.814 1121.5 809.014 1121.59 820.893 L 1122.14 891.939 C 1130.93 891.779 1143.87 890.16 1144.09 902.634 C 1144.39 919.367 1144.07 936.129 1143.92 952.868 C 1143.59 982.788 1143.46 1012.71 1143.54 1042.63 L 1144.9 1345.99 C 1152.77 1345.8 1164.53 1344.77 1171.42 1347.69 C 1178.85 1355.43 1175.87 1399.87 1175.75 1412.94 C 1187.45 1412.87 1202.97 1410.02 1203.54 1425.58 C 1204.19 1443.43 1204 1461.22 1204.02 1479.07 C 1203.91 1516.97 1204 1554.88 1204.3 1592.78 C 1240.34 1593.75 1247.21 1584.27 1245.29 1625.09 C 1244.89 1633.82 1247.25 1644.23 1241.01 1651.37 C 1232.39 1654.22 1176.53 1653.03 1163.76 1653.02 L 1026.5 1652.97 L 890.851 1653.01 C 866.901 1653.03 843 1653.14 819.004 1652.87 C 808.429 1652.32 802.569 1651.76 802.665 1639.61 C 803.067 1588.64 794.44 1592.23 844.985 1592.83 C 844.964 1574.29 842.731 1424.05 847.227 1418.03 C 851.838 1411.86 865.568 1413.48 872.476 1413.5 C 872.761 1393.68 871.465 1372.55 874.131 1353.12 C 875.628 1342.21 895.906 1345.86 904.066 1346.15 L 904.375 1046.16 L 904.114 954.197 C 904.072 937.327 903.861 920.601 904.492 903.735 C 905.006 889.955 916.318 891.848 926.802 892.142 C 927.179 877.629 924.65 785.394 929.679 780.117 C 933.928 775.66 941.155 776.816 946.728 776.956 C 946.982 763.903 946.794 751.507 946.189 738.467 C 945.376 720.916 958.005 721.746 971.185 721.871 C 971.511 716.088 971.208 710.337 971.295 704.566 C 971.484 691.973 976.571 692.123 986.751 692.626 C 989.068 677.87 998.924 568.953 1002.57 565.063 C 1005.58 561.855 1010.63 562.528 1014.66 562.544 L 1014.8 451.857 C 1014.76 436.27 1014.29 418.287 1015.25 402.569 C 1015.41 399.785 1018.48 397.661 1020.69 395.927 z" fill="rgb(181,127,37)" transform="translate(0,0)"></path>
<path d="M 991.775 702.166 C 1013.8 702.313 1035.82 702.316 1057.85 702.176 C 1057.99 709.022 1057.67 716.159 1057.5 722.999 C 1057.05 741.131 1068.58 740.021 1082.18 739.892 C 1082.16 750.976 1080.16 787.866 1086.36 794.434 C 1091.08 796.021 1096.85 795.598 1101.97 795.613 C 1101.94 808.429 1100.05 904.09 1104.08 908.072 C 1108.8 912.727 1117.87 911.817 1123.99 911.987 L 1124.13 1340.3 C 1124.19 1369.52 1127.82 1366.06 1155.91 1365.44 C 1155.73 1379.13 1153.05 1421.07 1159.24 1430.58 C 1165.69 1434.81 1175.09 1433.7 1183.19 1433.71 L 1183.28 1540.8 C 1183.31 1554.4 1182 1598.24 1186.93 1608.82 C 1194.55 1615.63 1214.24 1612.55 1225.08 1612.21 L 1225 1632.46 C 1172.83 1634.3 1112.13 1632.85 1059.5 1632.85 C 981.375 1632.9 901.239 1633.83 823.297 1632.63 C 823.005 1626.25 823.121 1619.06 823.092 1612.61 C 832.041 1612.07 858.764 1614.21 861.847 1608.41 C 866.641 1599.38 864.885 1551.64 864.899 1541.54 L 865.056 1433.52 C 870.131 1433.52 886.551 1434.19 888.592 1431.04 C 895.079 1421.03 892.878 1377.36 892.91 1365.49 C 901.586 1365.48 916.23 1367.79 922.488 1362.07 C 925.697 1353.95 924.217 1238.26 924.255 1222.46 L 924.908 911.958 C 931.5 911.948 939.839 913.132 944.963 908.124 C 948.806 904.369 947.076 807.974 947.059 795.311 C 951.463 795.313 958.668 795.796 962.377 794.146 C 969.455 786.577 966.789 752.002 966.792 739.694 C 997.809 740.684 990.893 729.029 991.775 702.166 z" fill="rgb(248,248,246)" transform="translate(0,0)"></path>
<path d="M 1018.68 581.591 C 1023.47 581.442 1025.02 581.203 1029.6 582.215 C 1031.31 584.591 1041.46 683.882 1040.78 691.113 C 1038.11 692.444 1033.7 692.037 1030.5 692.018 L 1007.76 692.027 L 1018.68 581.591 z" fill="rgb(248,248,246)" transform="translate(0,0)"></path>
<metadata><recraft-signature>{"signed_by": "recraft", "signature_b64": "FKIzmRV6qRXa3PVy312JeABFlXvO4COQP/MXqfn21JfYoF/NevGcpaL12m9nGgkO5hq9Nvay7vFuKwVV2mTgAA==", "signing_algo": "Ed25519", "generation_timestamp": 1782123616, "identifier": "d3e4d51d-d9b4-4012-a2ad-aa04e8f20860"}</recraft-signature></metadata></svg>