<svg xmlns="http://www.w3.org/2000/svg" style="display: block;" version="1.1" viewBox="0 0 2048 2048">
<path d="M 601.672 709.422 C 636.116 706.495 676.848 717.843 706.831 734.27 C 754.245 760.066 789.232 803.914 803.86 855.871 C 819.665 910.415 817.885 965.046 790.204 1015.08 C 808.521 1016.24 824.746 1016.97 843.058 1016.84 C 837.693 1002.66 831.313 986.633 827.496 972.09 C 813.767 917.739 821.675 860.18 849.554 811.546 C 907.129 713.238 1030.12 679.835 1129.17 737.941 C 1211.1 785.996 1245.73 893.749 1220.1 982.623 C 1216.8 994.04 1209.52 1006.9 1203.36 1017.12 C 1221.62 1017.02 1239.88 1017.09 1258.13 1017.34 C 1246.8 992.33 1240.56 975.41 1237.59 947.845 C 1231.22 888.776 1245.78 829.516 1283.87 783.184 C 1318.56 740.988 1364.82 715.533 1419.29 710.179 C 1471.22 705.577 1522.85 721.855 1562.75 755.414 C 1607.11 792.536 1634.9 845.769 1639.99 903.388 C 1642.5 930.488 1640.88 978.322 1640.89 1007.05 L 1641.01 1086.86 C 1641.05 1117.6 1642.7 1148.8 1635.06 1178.78 C 1613.07 1265.13 1542.63 1330.37 1453.5 1338.35 C 1453.02 1338.41 1452.55 1338.47 1452.07 1338.54 C 1340.99 1348.24 1246.17 1262.05 1237.26 1152.51 C 1233.66 1108.18 1231.36 1067.48 1259.96 1031.97 C 1242.86 1032.28 1225.75 1032.35 1208.64 1032.2 C 1214.56 1045.02 1219.12 1058.42 1222.25 1072.18 C 1237.19 1140.43 1222.19 1215.14 1176.53 1268.53 C 1110.72 1345.48 997.254 1361.45 913.059 1306.01 C 867.521 1276.1 835.86 1229.2 825.15 1175.78 C 815.653 1128.43 815.931 1073.43 843.461 1031.96 C 826.533 1032.39 809.595 1032.25 792.677 1031.54 C 803.952 1057.29 808.647 1070.14 811.528 1098.29 C 817.693 1158.53 805.801 1217.89 766.215 1265.31 C 730.213 1308.43 684.226 1332.93 628.22 1338.01 C 574.723 1342.72 521.581 1325.69 480.797 1290.75 C 439.376 1255.74 411.292 1199.82 408.221 1146.09 C 406.135 1109.59 407.423 1067.9 407.333 1030.98 L 407.027 954.834 C 406.915 926.77 405.553 899.805 412.066 872.267 C 420.063 839.532 435.638 809.134 457.537 783.523 C 493.698 740.489 545.633 713.789 601.672 709.422 z" fill="rgb(171,121,29)" transform="translate(0,0)"></path>
<path d="M 1012.46 800.355 C 1019.8 799.194 1030.26 799.79 1037.88 800.79 C 1092.66 807.983 1131.56 850.448 1140.1 903.993 C 1147.11 947.956 1124.4 1003.81 1176.29 1024.87 C 1164.98 1031.92 1153.63 1039.64 1146.92 1051.53 C 1126.28 1088.07 1159.4 1144.87 1116.97 1200.59 C 1096.92 1226.93 1068.91 1243.09 1036.25 1247.57 C 1010.98 1250.7 985.399 1245.17 963.681 1231.89 C 918.282 1204.63 904.342 1157.16 906.195 1107.42 C 907.635 1068.75 908.999 1044.66 872.231 1022.78 C 901.219 1004.6 908.276 991.229 907.705 956.818 C 907.033 916.306 906.078 878.184 932.771 844.782 C 953.837 818.422 978.92 804.554 1012.46 800.355 z" fill="rgb(250,250,249)" transform="translate(0,0)"></path>
<path d="M 599.811 802.379 C 656.533 794.167 715.625 842.047 724.902 897.012 C 727.17 910.452 727.19 932.756 726.764 946.696 C 725.538 986.76 725.534 1005.95 762.737 1027.61 C 754.884 1033.21 742.126 1042.24 736.741 1050.34 C 718.785 1077.34 728.134 1116.54 724.696 1148.12 C 723.474 1158.53 720.755 1168.7 716.623 1178.32 C 703.944 1207.95 680.838 1228.62 651.254 1240.56 C 643.657 1243.21 638.208 1244.85 630.177 1246.08 C 599.613 1250.68 568.479 1242.86 543.72 1224.36 C 498.588 1190.72 496.096 1145.58 496.025 1094.36 L 495.976 1028.33 L 495.869 956.846 C 495.828 939.254 495.093 917.741 498.152 900.82 C 501.675 881.286 509.783 862.866 521.811 847.075 C 540.963 822.546 568.965 806.5 599.811 802.379 z" fill="rgb(250,250,249)" transform="translate(0,0)"></path>
<path d="M 1424.46 802.357 C 1431.67 801.458 1441.85 801.4 1449.02 802.384 C 1479.71 806.85 1507.35 823.339 1525.87 848.215 C 1537.06 863.109 1544.66 880.391 1548.06 898.708 C 1550.84 914.138 1550.18 931.659 1550.3 947.447 L 1550.77 1012.46 L 1551.01 1091.44 C 1551.04 1109.75 1552 1129.38 1549.26 1147.42 C 1539.15 1213.96 1483.04 1256.06 1416.24 1245.57 C 1358.12 1232.47 1323.74 1187.83 1321.97 1128.49 C 1321.25 1104.59 1325.53 1074.23 1316.62 1051.87 C 1311.55 1039.15 1300.36 1029.79 1287.66 1024.89 C 1314.84 1005.63 1322.87 993.554 1321.88 959.294 C 1320.71 918.499 1319.03 880.716 1345.96 846.841 C 1367 820.365 1391.05 806.628 1424.46 802.357 z" fill="rgb(250,250,249)" transform="translate(0,0)"></path>
<path d="M 1425.86 725.415 C 1428.27 725.243 1430.68 725.123 1433.09 725.056 C 1482.46 723.786 1528.86 743.996 1564.81 777.824 C 1642.62 851.053 1623.4 946.904 1625.25 1041.79 C 1626.88 1126.17 1634.53 1199.82 1569.84 1265.61 C 1533.6 1302.47 1492.49 1322.58 1439.9 1323.27 C 1391.44 1324.27 1344.56 1305.95 1309.63 1272.34 C 1270.41 1234.1 1250.73 1181.84 1250.66 1127.46 C 1250.62 1096.7 1252.58 1058.76 1276.23 1035.73 C 1305.03 1048.4 1308.1 1065.72 1306.87 1094.58 C 1304.74 1144.33 1308.79 1183.74 1343.16 1222.59 C 1361.57 1240.43 1383.21 1254.26 1408.5 1259.99 C 1441.56 1267.31 1476.18 1261.2 1504.73 1243 C 1532.37 1225.19 1554.87 1194.68 1561.71 1162.34 C 1566.24 1140.87 1565.09 1117.08 1565.11 1094.99 L 1565.16 1018.28 L 1565.16 951.404 C 1565.15 933.898 1565.75 913.632 1562.99 896.61 C 1560.05 878.718 1553.34 861.656 1543.29 846.563 C 1476.1 744.439 1330.05 779.364 1308.35 897.068 C 1306.01 909.779 1306.57 934.69 1306.94 947.792 C 1307.99 985.854 1305.16 993.566 1274.06 1014.38 C 1260.75 986.615 1254.9 971.461 1251.65 940.758 C 1246.16 888.879 1261.55 832.683 1295.49 792.459 C 1328.16 753.486 1375.15 729.319 1425.86 725.415 z" fill="rgb(250,250,249)" transform="translate(0,0)"></path>
<path d="M 596.698 725.405 C 639.698 720.769 690.501 737.681 724.379 763.996 C 764.933 795.464 791.044 841.988 796.78 892.996 C 801.745 934.538 798.041 979.509 771.26 1013.37 C 735.889 1000.36 742.715 971.295 742.417 940.972 C 742.31 930.061 742.858 919.024 741.849 908.13 C 739.861 887.554 733.125 867.72 722.169 850.189 C 703.123 819.548 673.781 797.197 638.345 789.299 C 606.183 782.148 572.497 788.172 544.808 806.028 C 515.42 825.175 486.416 864.703 482.448 899.598 C 478.457 934.69 481.014 977.021 481.023 1012.79 L 480.96 1088.19 C 480.939 1108.28 480.204 1127.38 483.148 1147.32 C 497.752 1246.23 602.518 1295.19 686.171 1239.16 C 687.68 1238.07 689.166 1236.94 690.627 1235.78 C 746.613 1191.32 739.447 1144.68 740.842 1081.98 C 741.315 1060.71 759.567 1050.75 774.744 1039.06 C 788.821 1057.74 792.748 1072.6 795.726 1095.67 C 803.276 1154.14 790.828 1209.37 753.835 1255.94 C 723.271 1293.23 680.123 1316.55 632.665 1322.25 C 524.256 1335.26 432.286 1250.98 422.986 1144.83 C 420.225 1113.33 421.83 1078.17 421.817 1045.91 L 421.823 965.548 C 421.847 935.909 420.622 906.007 427.201 876.96 C 434.114 847.179 447.832 819.404 467.278 795.812 C 499.573 756.349 546.021 731.08 596.698 725.405 z" fill="rgb(250,250,249)" transform="translate(0,0)"></path>
<path d="M 1192 1035.02 C 1192.17 1035.15 1192.34 1035.29 1192.51 1035.43 C 1206.6 1057.67 1212.42 1100.12 1212.86 1124.96 C 1213.51 1177.86 1193.25 1228.87 1156.47 1266.9 C 1121.74 1303 1073.76 1323.34 1023.67 1323.21 C 954.536 1323.52 894.03 1287.79 860.589 1227.15 C 840.714 1191.11 834.924 1158.27 834.908 1117.7 C 834.899 1085.28 842.293 1061.98 860.175 1035.52 C 891.517 1046.57 891.923 1070.86 891.264 1098.99 C 890.367 1137.24 892.552 1172.84 914.703 1205.61 C 934.24 1235.01 964.835 1255.25 999.528 1261.74 C 1084.55 1277.36 1159.8 1206.59 1155.1 1123.15 C 1154.2 1107.16 1154.79 1086.95 1156.27 1070.99 C 1157.82 1054.26 1178.92 1043.45 1192 1035.02 z" fill="rgb(250,250,249)" transform="translate(0,0)"></path>
<path d="M 1003.7 726.413 C 1046.9 722.298 1094.83 732.782 1130.7 757.76 C 1172.66 786.874 1201.4 831.412 1210.63 881.644 C 1218.58 926.992 1213.73 973.409 1186.98 1011.73 C 1155.78 1002.71 1156.9 977.704 1157.15 951.154 C 1157.29 936.819 1157.74 919.652 1156.12 905.669 C 1153.67 884.807 1146.46 864.786 1135.04 847.152 C 1112.95 812.64 1084.26 794.974 1045.04 786.392 C 1043.72 786.168 1042.4 785.97 1041.08 785.797 C 1006.92 781.244 972.355 790.548 945.097 811.635 C 912.836 836.351 893.639 874.455 892.974 915.09 C 892.603 933.651 894.194 953.433 892.328 971.852 C 890.192 992.938 876.478 1001.07 860.923 1012.84 C 819.854 942.86 831.118 852.756 882.518 791.111 C 912.651 754.229 956.286 730.933 1003.7 726.413 z" fill="rgb(250,250,249)" transform="translate(0,0)"></path>
<metadata><recraft-signature>{"signed_by": "recraft", "signature_b64": "oCLnGvhtrblYbxa+Z5kL081FA3MwFXj2OoJ0r1n7DIr7XScDbUKbeYvXoFmjVckRnG4egTO5I/ge4GDTTj5PAQ==", "signing_algo": "Ed25519", "generation_timestamp": 1782123652, "identifier": "af0460c8-379a-4a86-9b85-b0f02cd07a55"}</recraft-signature></metadata></svg>