<svg xmlns="http://www.w3.org/2000/svg" style="display: block;" version="1.1" viewBox="0 0 2048 2048">
<path d="M 704.3 629.028 L 1343.95 628.979 C 1355.45 640.753 1368.42 656.845 1379.54 669.455 L 1451.9 751.402 L 1502.54 809.195 C 1517.15 825.6 1534.29 844.263 1547.87 861.368 C 1537.47 874.493 1522.69 889.654 1511.03 901.977 C 1492.2 921.676 1473.58 941.572 1455.17 961.663 C 1364.03 1061.17 1272.28 1160.12 1179.92 1258.5 L 1025.01 1424.38 C 988.293 1382.38 947.606 1342.19 909.71 1301.22 L 613.326 981.312 C 577.296 942.4 535.568 900.467 501.249 860.565 C 511.028 848.422 524.571 833.725 535.056 821.778 L 600.937 746.977 C 634.538 708.847 669.984 666.002 704.3 629.028 z" fill="rgb(192,141,51)" transform="translate(0,0)"></path>
<path d="M 842.57 873.431 C 964.186 871.746 1088.8 872.806 1210.6 872.96 C 1164.27 992.768 1119.09 1113.02 1075.08 1233.7 C 1058.31 1276.86 1042.11 1323.91 1023.99 1366.11 C 1016.33 1347.55 1008.87 1323.93 1001.45 1304.44 L 917.331 1079.6 C 897.62 1028.82 878.442 977.838 859.8 926.655 C 856.367 917.175 842.614 882.922 841.337 874.528 L 842.57 873.431 z" fill="rgb(242,241,236)" transform="translate(0,0)"></path>
<path d="M 1237.33 872.931 L 1501.36 873.036 C 1483.55 894.498 1464.53 913.996 1445.47 934.313 L 1381.49 1003.36 L 1151.86 1250.78 C 1122.68 1282.15 1092.21 1313.28 1063.53 1344.99 L 1061.27 1342.16 C 1077.9 1300.97 1093.33 1257.21 1109.07 1215.39 L 1187.08 1007.97 L 1218.07 925.064 C 1224.06 908.819 1230.87 888.632 1237.33 872.931 z" fill="rgb(242,241,236)" transform="translate(0,0)"></path>
<path d="M 547.16 873.404 C 574.33 872.874 601.844 873.505 629.066 873.536 L 812.802 873.445 C 819.499 892.722 827.415 912.171 834.533 931.374 L 876.406 1043.9 L 988.98 1345.47 L 988.695 1346.07 L 987.284 1345.6 L 988.383 1345.97 C 985.593 1344.28 970.621 1327.41 967.426 1324.02 L 893.347 1244.75 L 547.16 873.404 z" fill="rgb(242,241,236)" transform="translate(0,0)"></path>
<path d="M 1024.19 661.083 L 1199.09 846.093 L 1025.05 846.656 L 849.534 846.744 C 880.726 812.272 911.702 779.974 943.64 746.236 C 970.83 717.513 996.329 689.36 1024.19 661.083 z" fill="rgb(242,241,236)" transform="translate(0,0)"></path>
<path d="M 1054.2 655.523 C 1079.38 653.786 1121.2 655.154 1147.15 655.254 C 1203.98 655.579 1260.81 655.618 1317.64 655.369 C 1309.32 672.475 1299.22 690.148 1290.2 707.024 L 1255.96 772.379 C 1245.42 792.879 1234.73 813.307 1223.91 833.66 C 1174.93 783.719 1127.02 733.076 1078.89 682.329 C 1070.58 673.572 1061.89 664.797 1054.2 655.523 z" fill="rgb(242,241,236)" transform="translate(0,0)"></path>
<path d="M 731.693 655.072 C 765.151 654.651 799.713 655.279 833.324 655.271 L 993.347 655.089 C 969.767 684.309 933.257 718.436 906.5 747.513 C 880.062 776.675 851.909 805.373 825.2 834.655 C 820.439 826.898 815.803 817.898 811.716 809.713 C 785.883 757.97 756.967 707.038 731.693 655.072 z" fill="rgb(242,241,236)" transform="translate(0,0)"></path>
<path d="M 706.872 664.704 C 709.619 667.185 731.502 711.177 734.961 717.845 L 802.934 847.747 C 750.499 848.786 695.388 847.937 642.75 847.915 L 547.18 847.953 C 596.347 786.124 656.276 725.866 706.872 664.704 z" fill="rgb(242,241,236)" transform="translate(0,0)"></path>
<path d="M 1341.32 666.494 C 1352.2 675.557 1383.73 712.587 1394.41 724.776 L 1500.85 846.783 L 1406.5 846.667 L 1247.71 846.788 C 1259.31 819.51 1278.05 788.869 1291.63 762.024 C 1307.72 730.217 1324.3 697.712 1341.32 666.494 z" fill="rgb(242,241,236)" transform="translate(0,0)"></path>
<path d="M 1061.27 1342.16 L 1063.53 1344.99 L 1062.07 1346.57 C 1056.86 1352.28 1060.24 1344.13 1061.27 1342.16 z" fill="rgb(242,235,215)" transform="translate(0,0)"></path>
<metadata><recraft-signature>{"signed_by": "recraft", "signature_b64": "2wg6ytanI7u8206pkMIPy6OXsQEHfROGWyZysYKFA/4omKct09XDLpj0MiFV/AMbM1hto9/hzJcyq7s0t5cSCA==", "signing_algo": "Ed25519", "generation_timestamp": 1782123684, "identifier": "c1ac48d1-6231-41df-9cef-5b9c3ebcef30"}</recraft-signature></metadata></svg>