<svg xmlns="http://www.w3.org/2000/svg" style="display: block;" version="1.1" viewBox="0 0 2048 2048">
<path d="M 1202.68 558.141 C 1206.37 557.862 1227.7 557.337 1232.58 558.521 C 1232.75 558.561 1232.9 558.876 1232.88 559.018 C 1232.7 560.254 1228.38 560.498 1227.73 560.619 C 1200.12 567.438 1155.86 582.323 1140.07 608.469 C 1131.81 622.161 1133.73 648.216 1133.9 664.891 C 1189.88 672.602 1265.56 689.69 1316.79 713.904 C 1317.17 779.035 1315.07 843.701 1314.94 908.476 C 1314.99 910.858 1315.82 921.835 1314.03 922.594 C 1313.84 922.604 1313.65 922.511 1313.54 922.349 C 1313.02 921.555 1312.97 920.534 1312.84 919.663 L 1312.53 917.672 C 1312.5 917.41 1312.46 917.147 1312.42 916.885 C 1297.42 842.874 1272.06 792.166 1209.02 747.156 C 1105.62 673.335 956.546 709.022 889.331 813.697 C 810.251 936.849 828.611 1130.28 958.078 1213.41 C 1040.1 1266.07 1123.66 1257.9 1210.85 1230 L 1210.23 1133.5 C 1210.21 1111.31 1211.83 1076.43 1207.89 1055.07 C 1204.31 1035.67 1179.56 1015.87 1163.79 1005.04 L 989.998 1005.08 C 1007.15 1015.49 1025.63 1037.23 1026.53 1057.63 C 1027.4 1077.41 1027.03 1098.83 1027.03 1118.7 L 1026.97 1230.21 L 1012.1 1227.19 C 1012.46 1186.85 1012.51 1146.51 1012.26 1106.17 C 1012.17 1094.45 1012.7 1064.75 1010.57 1054.51 C 1008.3 1043.97 1003.02 1034.33 995.366 1026.74 C 979.656 1011.02 951.365 1001.87 930.275 994.537 C 927.031 993.907 922.736 992.664 919.489 991.732 C 918.41 991.907 917.592 992.077 916.707 991.339 L 917.114 990.656 C 919.867 989.365 966.702 989.743 972.519 990.142 C 999.532 990.09 1028.64 989.494 1055.48 990.152 C 1083.06 989.555 1111.78 990.139 1139.48 990.11 L 1309.34 990.07 L 1384.86 990.037 C 1394.4 990.013 1416.51 989.342 1424.49 990.554 L 1424.91 991.393 L 1421.87 992.393 C 1395.7 1000.27 1363.26 1012.93 1344.58 1033.84 C 1336.1 1043.43 1330.35 1055.1 1327.89 1067.66 C 1325.63 1079.31 1326.59 1116.87 1326.86 1131.08 C 1327.57 1168.81 1326.49 1209.94 1328.58 1247.29 C 1270.36 1264.91 1211.12 1283.71 1151.26 1293.73 C 1045.68 1311.41 923.953 1293.67 836.025 1228.63 C 769.416 1179.26 725.582 1105.07 714.475 1022.9 C 703.165 943.656 727.472 861.145 775.616 797.74 C 832.095 723.355 920.555 678.742 1012.12 666.318 C 1012.14 650.932 1013.83 623.225 1006.76 610.204 C 992.303 583.571 948.112 568.593 920.591 559.882 C 919.583 559.648 919.283 559.727 918.606 559.008 C 918.611 558.897 918.617 558.785 918.623 558.674 C 920.269 557.513 927.149 557.982 929.198 558.039 L 1202.68 558.141 z" fill="rgb(175,136,65)" transform="translate(0,0)"></path>
<path d="M 1055.48 990.152 C 1083.06 989.555 1111.78 990.139 1139.48 990.11 L 1309.34 990.07 L 1384.86 990.037 C 1394.4 990.013 1416.51 989.342 1424.49 990.554 L 1424.91 991.393 L 1421.87 992.393 C 1412.34 987.347 1095.56 994.595 1055.48 990.152 z" fill="rgb(195,163,121)" transform="translate(0,0)"></path>
<path d="M 919.489 991.732 C 918.41 991.907 917.592 992.077 916.707 991.339 L 917.114 990.656 C 919.867 989.365 966.702 989.743 972.519 990.142 C 965.746 991.066 937.805 991.068 929.531 990.882 L 930.275 994.537 C 927.031 993.907 922.736 992.664 919.489 991.732 z" fill="rgb(225,214,198)" transform="translate(0,0)"></path>
<path d="M 919.489 991.732 C 923.993 990.981 924.935 990.882 929.531 990.882 L 930.275 994.537 C 927.031 993.907 922.736 992.664 919.489 991.732 z" fill="rgb(195,163,121)" transform="translate(0,0)"></path>
<path d="M 1202.68 558.141 C 1206.37 557.862 1227.7 557.337 1232.58 558.521 C 1232.75 558.561 1232.9 558.876 1232.88 559.018 C 1232.7 560.254 1228.38 560.498 1227.73 560.619 C 1227.1 557.921 1207.23 558.753 1202.68 558.141 z" fill="rgb(225,214,198)" transform="translate(0,0)"></path>
<path d="M 1312.42 916.885 C 1314.54 913.467 1314.08 912.714 1314.94 908.476 C 1314.99 910.858 1315.82 921.835 1314.03 922.594 C 1313.84 922.604 1313.65 922.511 1313.54 922.349 C 1313.02 921.555 1312.97 920.534 1312.84 919.663 L 1312.53 917.672 C 1312.5 917.41 1312.46 917.147 1312.42 916.885 z" fill="rgb(195,163,121)" transform="translate(0,0)"></path>
<path d="M 920.591 559.882 C 919.583 559.648 919.283 559.727 918.606 559.008 C 918.611 558.897 918.617 558.785 918.623 558.674 C 920.269 557.513 927.149 557.982 929.198 558.039 C 926.205 558.625 923.569 559.167 920.591 559.882 z" fill="rgb(195,163,121)" transform="translate(0,0)"></path>
<path d="M 1312.14 1236.26 C 1285.07 1243.53 1257.46 1252.03 1230.59 1260.14 C 1124.98 1292.01 1016.87 1296.49 913.453 1254.56 C 838.913 1224.77 779.421 1166.35 748.282 1092.37 C 680.979 932.026 774.328 760.489 930.591 703.217 C 1052.11 658.678 1185.19 675.6 1302.15 724.128 C 1301.82 748.21 1302.39 772.296 1301.81 796.421 C 1302.02 803.45 1301.98 810.526 1301.99 817.561 C 1301.99 819.254 1302.65 829.367 1301.17 829.672 C 1300.6 829.3 1300.55 829.014 1300.28 828.397 C 1279.05 790.94 1255.04 758.657 1218.12 735.09 C 1161.06 698.729 1104.73 683.125 1037.27 697.57 C 871.711 733.021 801.998 900.555 835.082 1055.23 C 868.561 1211.75 1017.64 1299.73 1171.63 1256.83 C 1188.51 1252.13 1208.28 1245.39 1224.94 1241.82 L 1226.85 1241.42 L 1226.24 1121.77 C 1225.84 1069.34 1233.23 1041.79 1187.67 1005.32 C 1243.88 1004.83 1300.1 1004.77 1356.32 1005.13 C 1349.06 1009.34 1342.42 1014.54 1336.58 1020.56 C 1304.41 1053.1 1310.75 1088.4 1311.03 1130.33 L 1312.14 1236.26 z" fill="rgb(247,247,244)" transform="translate(0,0)"></path>
<path d="M 1300.28 828.397 C 1302.84 816.975 1299.03 807.769 1301.81 796.421 C 1302.02 803.45 1301.98 810.526 1301.99 817.561 C 1301.99 819.254 1302.65 829.367 1301.17 829.672 C 1300.6 829.3 1300.55 829.014 1300.28 828.397 z" fill="rgb(225,214,198)" transform="translate(0,0)"></path>
<path d="M 988.721 572.105 C 1005.69 571.799 1026.23 572.902 1043.68 573.021 L 1157.3 572.96 C 1137.12 586.256 1119.55 601.724 1118.96 627.75 L 1118.99 664.355 C 1084.16 661.221 1062.01 662.032 1027.41 664.798 C 1026.16 617.993 1032.79 602.074 988.721 572.105 z" fill="rgb(247,247,244)" transform="translate(0,0)"></path>
<path d="M 704.286 1473 C 703.659 1427.93 705.126 1380.12 705.936 1334.98 C 706.209 1319.82 707.169 1286.02 709.952 1272.95 C 714.155 1310.58 727.711 1350.43 747.939 1383.98 C 790.32 1454.26 879.978 1481.6 951.492 1438.03 C 980.82 1420.16 991.218 1392.79 998.901 1360.79 C 1002.96 1343.88 1006.93 1326.42 1010.44 1308.61 L 1025.59 1310.3 C 1022.04 1335.61 1012.22 1373.3 1003.47 1397.72 C 977.537 1470.06 881.209 1487.76 816.851 1462.31 C 773.076 1445 741.127 1409.7 722.594 1367.57 L 719.637 1368.97 C 720.354 1375.85 719.66 1394.27 719.543 1401.89 C 719.14 1421.79 718.99 1441.7 719.092 1461.6 C 815.533 1486.81 915.163 1503.22 1006.57 1451.02 C 1060.41 1420.76 1099.64 1369.91 1115.25 1310.16 L 1131.39 1309.59 C 1131.12 1310.75 1130.84 1311.91 1130.54 1313.06 C 1114.02 1375.99 1073.16 1429.76 1016.97 1462.54 C 914.593 1522.58 810.864 1500.44 704.286 1473 z" fill="rgb(175,136,65)" transform="translate(0,0)"></path>
<path d="M 719.637 1368.97 C 719.702 1368.1 719.614 1363.95 720.554 1363.49 C 721.869 1364 722.26 1366.51 722.594 1367.57 L 719.637 1368.97 z" fill="rgb(225,214,198)" transform="translate(0,0)"></path>
<path d="M 1119.95 723.692 C 1125.07 724.405 1129.93 724.859 1135.06 725.336 L 1134.78 977.44 L 1119.65 977.909 C 1119.66 894.42 1117.24 806.919 1119.95 723.692 z" fill="rgb(175,136,65)" transform="translate(0,0)"></path>
<path d="M 1026.17 727.172 C 1028.68 731.613 1027.18 951.332 1027.5 977.128 L 1014.12 977.169 C 1011.76 974.644 1012.54 899.544 1012.52 890.463 L 1011.89 731.774 C 1016.55 730.403 1021.52 728.68 1026.17 727.172 z" fill="rgb(175,136,65)" transform="translate(0,0)"></path>
<path d="M 1119.8 1018.86 L 1134.93 1018.76 C 1134.59 1090.49 1135.46 1162.95 1134.53 1234.56 L 1119.23 1236.51 C 1118.9 1163.96 1119.09 1091.41 1119.8 1018.86 z" fill="rgb(175,136,65)" transform="translate(0,0)"></path>
<metadata><recraft-signature>{"signed_by": "recraft", "signature_b64": "akOejE6+uN0S8rj+4Q5aeixgZZ4c2/6Di2/HJINorTPlZez4MKGKsQ7MZG8URKsGhUAIstdh/7GAXKEqOkKbCQ==", "signing_algo": "Ed25519", "generation_timestamp": 1782123801, "identifier": "3ad437da-96ad-4fd1-b4c7-2b09caaa5767"}</recraft-signature></metadata></svg>