<svg xmlns="http://www.w3.org/2000/svg" height="1024" preserveAspectRatio="none" style="display: block;" version="1.1" viewBox="0 0 2048 2048" width="1024">
<path d="M 0 0 L 2048 0 L 2048 2048 L 0 2048 L 0 0 z" fill="rgb(246,247,239)" transform="translate(0,0)"></path>
<path d="M 1024.31 508.691 C 1027.42 513.364 1031.01 523.402 1033.56 528.974 C 1052.98 571.448 1079.69 605.754 1116.89 634.148 C 1163.81 669.965 1223.12 685.508 1281.57 677.309 C 1350.14 668.07 1397.84 633.372 1438.93 579.666 L 1438.67 913.831 L 1438.45 1003.54 C 1438.38 1041.19 1439.72 1072.01 1431.65 1109.39 C 1400.63 1253.06 1277.1 1354.57 1162.96 1435.31 C 1117.06 1467.59 1070.46 1498.87 1023.2 1529.11 C 1006.6 1517.08 990.124 1506.24 973.081 1494.78 C 836.822 1403.12 677.928 1301.59 623.734 1137.43 C 606.273 1084.54 609.554 1029.46 609.801 974.74 L 609.795 867.33 L 609.75 580.138 C 639.326 617.226 670.573 645.86 715.289 664.055 C 769.386 685.514 829.777 684.684 883.264 661.747 C 951.899 632.447 997.247 576.641 1024.31 508.691 z" fill="rgb(185,139,46)" transform="translate(0,0)"></path>
<path d="M 1024.62 566.606 C 1027.8 569.42 1038.18 586.669 1041.46 591.424 C 1125.78 713.501 1301.18 746.17 1414.93 640.783 C 1414.12 678.252 1414.77 714.895 1414.71 752.263 L 1414.4 931.662 C 1414.52 981.291 1418.08 1057.71 1408.39 1104.02 C 1378.81 1245.41 1242.84 1350.55 1130.09 1428.39 C 1095.82 1452.16 1061.2 1475.43 1026.25 1498.2 L 1023.59 1499.01 C 1015.29 1496.05 983.027 1472.49 973.112 1465.74 C 845.472 1378.75 696.621 1282.16 645.955 1127.61 C 631.935 1084.85 633.943 1034.16 633.726 989.667 C 633.52 949.133 633.524 908.598 633.74 868.064 L 633.236 641.372 C 735.929 735.216 895.607 719.361 986.556 617.892 C 1000.56 602.269 1013.03 584.079 1024.62 566.606 z" fill="rgb(246,247,239)" transform="translate(0,0)"></path>
<path d="M 1023.23 647.58 C 1025.25 649.516 1041.23 674.455 1044.29 678.796 C 1066.41 709.875 1095.24 735.566 1128.66 753.956 C 1197.56 792.338 1259.33 783.185 1330.88 762.888 L 1331.02 962.15 C 1331.07 1002.05 1333.19 1059.9 1325.98 1097.19 C 1304.79 1206.8 1192.84 1287.07 1106.47 1346.49 C 1079.59 1364.98 1052.63 1385.14 1025.51 1403.36 L 1024.66 1403.67 C 1016.05 1402.16 866.102 1292.91 849.383 1279.04 C 793.747 1232.9 730.879 1163.81 722.558 1089.11 C 719.353 1060.34 718.947 1034.17 718.949 1005.01 L 718.836 931.607 L 718.796 762.963 C 770.742 778.299 819.497 787.398 872.987 772.828 C 939.166 754.802 989.686 705.835 1023.23 647.58 z" fill="rgb(185,139,46)" transform="translate(0,0)"></path>
<path d="M 1023.93 693.81 C 1103.12 787.829 1181.83 823.797 1305.92 795.186 C 1306.76 854.34 1307.05 913.5 1306.79 972.659 C 1306.88 1003.21 1308.92 1059.92 1303.62 1087.41 C 1284.28 1187.61 1186.04 1261.16 1107.28 1316.34 C 1080.57 1335.23 1053.65 1353.83 1026.53 1372.14 L 1024.97 1372.95 C 1016.92 1372.48 887.889 1278.34 874.064 1267.18 C 856.444 1252.89 839.606 1237.66 823.621 1221.56 C 731.386 1129.32 743.007 1072.62 742.936 954.684 L 742.884 795.357 C 868.09 821.69 943.424 790.629 1023.93 693.81 z" fill="rgb(246,247,239)" transform="translate(0,0)"></path>
<metadata><recraft-signature>{"signed_by": "recraft", "signature_b64": "cEaY6vCTRxdg7hAQL0gN5MbBH3dZfM4UiEUtWUSC9BRBi8filgAoOd3ZTQerl3RjXfJrj7+qd3iPzugWLstqBQ==", "signing_algo": "Ed25519", "generation_timestamp": 1782123875, "identifier": "14e5219c-d687-42f4-a10a-db3241080754"}</recraft-signature></metadata></svg>